<svg id="Layer_1" height="512" viewBox="0 0 512 512" width="512" xmlns="http://www.w3.org/2000/svg" data-name="Layer 1"><path d="m271.686 77.726c11.792-11.792 20.689-24.911 25.054-36.94 3.619-9.974 3.57-18.14-.133-21.842-1.91-1.91-4.9-2.852-8.664-2.852-11.992 0-31.889 9.545-50.117 27.773-11.792 11.792-20.69 24.91-25.055 36.939-3.619 9.974-3.569 18.139.134 21.842 7.995 7.993 34.828-.967 58.781-24.92z"/><path d="m221.521 119.488a34.984 34.984 0 0 1 -8.521-1.07v63.582h86v-114.895a169.849 169.849 0 0 1 -17.339 20.52c-20.44 20.439-43.161 31.863-60.14 31.863z"/><path d="m196 196h120v105h-120z"/><path d="m181 472.88a23.145 23.145 0 0 0 23.019 23.12h103.962a23.145 23.145 0 0 0 23.019-23.12v-157.88h-150zm22-115.338a7 7 0 1 1 14 0v98.089a7 7 0 0 1 -14 0z"/></svg>